<svg width="40" height="40" viewBox="0 0 40 40" fill="none" xmlns="http://www.w3.org/2000/svg">
<rect width="40" height="40" rx="6" fill="white"/>
<path d="M17.7954 27.5C18.3831 28.0186 19.1549 28.3333 20.0003 28.3333C20.8457 28.3333 21.6175 28.0186 22.2052 27.5M25.0003 16.6666C25.0003 15.3405 24.4735 14.0688 23.5358 13.1311C22.5982 12.1934 21.3264 11.6666 20.0003 11.6666C18.6742 11.6666 17.4024 12.1934 16.4648 13.1311C15.5271 14.0688 15.0003 15.3405 15.0003 16.6666C15.0003 19.2418 14.3507 21.0049 13.625 22.1711C13.0129 23.1549 12.7068 23.6467 12.7181 23.7839C12.7305 23.9359 12.7627 23.9938 12.8851 24.0846C12.9957 24.1666 13.4941 24.1666 14.491 24.1666H25.5096C26.5065 24.1666 27.0049 24.1666 27.1155 24.0846C27.2379 23.9938 27.2701 23.9359 27.2825 23.7839C27.2938 23.6467 26.9877 23.1549 26.3756 22.1711C25.6499 21.0049 25.0003 19.2418 25.0003 16.6666Z" stroke="#667085" stroke-width="1.66667" stroke-linecap="round" stroke-linejoin="round"/>
</svg>
